<svg width="381" height="192" viewBox="0 0 381 192" fill="none" xmlns="http://www.w3.org/2000/svg" xmlns:xlink="http://www.w3.org/1999/xlink">
<g filter="url(#filter0_d_12_8)">
<g clip-path="url(#clip0_12_8)">
<rect x="6" y="2" width="369" height="180" rx="24" fill="#0077FF"/>
<rect x="6" y="2" width="369" height="180" rx="24" fill="url(#pattern0_12_8)" fill-opacity="0.2"/>
<path d="M266.632 -37.2148C277.513 -48.8134 295.235 -52.0963 309.851 -44.1318C319.26 -39.0046 325.448 -30.2682 327.638 -20.5781L367.551 -28.2217L371.415 -8.04199C385.038 -18.504 404.086 -20.6026 420.14 -11.8545C441.855 -0.0210017 449.867 27.176 438.033 48.8916C434.86 54.7153 430.579 59.5512 425.598 63.2852L455 102.452L387.145 153.391L345.786 98.2959L383.862 69.7119C381.631 68.9245 379.432 67.9528 377.287 66.7842C367.891 61.6638 361.062 53.6661 357.295 44.4814L321.001 51.4326L314.203 15.9365C303.339 24.0744 288.296 25.6455 275.598 18.7256C268.036 14.6052 262.554 8.15472 259.556 0.750977L246.282 21.7373L195.001 -10.6992L227.449 -61.999L266.632 -37.2148Z" fill="white"/>
<path d="M-40.0051 99.6823C-23.7927 91.0147 -3.17253 93.9881 9.87848 108.126C18.28 117.227 21.8171 129.085 20.6227 140.507L67.1573 146.932L63.9087 170.456C82.7007 164.052 104.333 168.817 118.666 184.344C138.056 205.348 136.747 238.094 115.743 257.484C94.7391 276.873 61.9939 275.564 42.6043 254.56C34.2135 245.471 29.7015 234.182 28.9818 222.729L-13.3287 216.889L-7.61575 175.503C-22.5274 180.388 -39.5798 176.533 -50.9189 164.25C-57.6697 156.937 -61.2809 147.844 -61.82 138.628L-84.1322 156.687L-128.257 102.168L-73.7182 58.0279L-40.0051 99.6823Z" fill="white"/>
<path d="M226.009 146.267L274.789 125.457C277.229 124.416 279.896 126.359 279.654 129.001L276.481 163.608C276.088 167.898 271.606 170.54 267.662 168.808L254.632 163.086C252.621 162.203 251.908 159.708 253.15 157.896L265.143 140.399C265.591 139.745 264.78 138.967 264.145 139.441L244.116 154.412C241.752 156.178 238.635 156.577 235.902 155.462L226.05 151.442C223.744 150.5 223.718 147.244 226.009 146.267Z" fill="white"/>
<path d="M83.4588 -10.0019C83.1162 -10.4323 82.7735 -10.8626 82.4308 -11.293C76.0348 -6.1846 70.2879 -0.266358 65.4755 6.34816C48.8342 28.6744 44.268 60.7144 57.9612 85.5469C71.2924 110.968 101.594 122.335 129.08 120.757L129.134 120.753C134.372 119.959 139.561 118.92 144.378 116.484C146.661 115.246 149.215 113.588 149.893 110.695C150.498 107.634 147.949 105.294 145.678 104.062C135.845 99.3197 124.44 101.451 114.85 105.5C102.954 109.846 94.9474 123.108 97.8788 135.604C100.23 147.919 107.811 158.951 117.992 166.115C155.176 191.834 208.511 189.34 243.521 161.018C249.934 156.052 255.831 150.432 261.181 144.349C255.81 150.414 249.896 156.012 243.47 160.953C208.384 189.136 155.189 191.38 118.296 165.671C108.27 158.575 100.792 147.59 98.5331 135.49C95.7412 123.201 103.476 110.497 115.163 106.226C124.605 102.248 135.928 100.286 145.243 104.846C147.412 106.024 149.505 108.13 148.988 110.513C148.468 112.844 146.144 114.482 143.938 115.641C139.308 117.968 134.171 118.996 128.992 119.759L129.045 119.754C101.76 121.217 72.0568 109.87 59.0914 84.9337C45.7559 60.5599 50.3267 29.1393 66.7416 7.27291C71.4891 0.794012 77.1538 -5.00096 83.4588 -10.0019Z" fill="white"/>
<path d="M125.848 170.736L121.85 170.284L124.24 167.047L125.848 170.736Z" fill="white"/>
<path d="M99.939 127.439L97.8944 130.906L95.9149 127.402L99.939 127.439Z" fill="white"/>
</g>
<rect x="6.5" y="2.5" width="368" height="179" rx="23.5" stroke="#E4E4E7"/>
</g>
<defs>
<filter id="filter0_d_12_8" x="0" y="0" width="381" height="192" filterUnits="userSpaceOnUse" color-interpolation-filters="sRGB">
<feFlood flood-opacity="0" result="BackgroundImageFix"/>
<feColorMatrix in="SourceAlpha" type="matrix" values="0 0 0 0 0 0 0 0 0 0 0 0 0 0 0 0 0 0 127 0" result="hardAlpha"/>
<feOffset dy="4"/>
<feGaussianBlur stdDeviation="3"/>
<feComposite in2="hardAlpha" operator="out"/>
<feColorMatrix type="matrix" values="0 0 0 0 0 0 0 0 0 0 0 0 0 0 0 0 0 0 0.05 0"/>
<feBlend mode="normal" in2="BackgroundImageFix" result="effect1_dropShadow_12_8"/>
<feBlend mode="normal" in="SourceGraphic" in2="effect1_dropShadow_12_8" result="shape"/>
</filter>
<clipPath id="clip0_12_8">
<rect x="6" y="2" width="369" height="180" rx="24" fill="white"/>
</clipPath>
<pattern id="pattern0_12_8" patternUnits="userSpaceOnUse" patternTransform="matrix(8 0 0 8 6 2)" preserveAspectRatio="none" viewBox="0 0 40 40" width="1" height="1">
<g id="pattern0_12_8_inner">
<circle cx="5" cy="5" r="5" fill="#D9D9D9"/>
</g>
</pattern></defs>
</svg>
