<svg width="18" height="18" viewBox="0 0 18 18" fill="none" xmlns="http://www.w3.org/2000/svg">
<path fill-rule="evenodd" clip-rule="evenodd" d="M0.125 6.87393H4.761C4.94686 7.45434 5.31229 7.96071 5.80458 8.31998C6.29686 8.67926 6.89055 8.87286 7.5 8.87286C8.10945 8.87286 8.70314 8.67926 9.19542 8.31998C9.68771 7.96071 10.0531 7.45434 10.239 6.87393H17.875V5.12393H10.239C10.0531 4.54351 9.68771 4.03715 9.19542 3.67787C8.70314 3.3186 8.10945 3.125 7.5 3.125C6.89055 3.125 6.29686 3.3186 5.80458 3.67787C5.31229 4.03715 4.94686 4.54351 4.761 5.12393H0.125V6.87393ZM7.5 4.87393C7.35226 4.87393 7.20597 4.90303 7.06948 4.95956C6.93299 5.0161 6.80897 5.09897 6.7045 5.20343C6.60004 5.3079 6.51717 5.43192 6.46064 5.56841C6.4041 5.7049 6.375 5.85119 6.375 5.99893C6.375 6.14667 6.4041 6.29296 6.46064 6.42945C6.51717 6.56594 6.60004 6.68996 6.7045 6.79442C6.80897 6.89889 6.93299 6.98176 7.06948 7.03829C7.20597 7.09483 7.35226 7.12393 7.5 7.12393C7.79837 7.12393 8.08452 7.0054 8.2955 6.79442C8.50647 6.58344 8.625 6.2973 8.625 5.99893C8.625 5.70056 8.50647 5.41441 8.2955 5.20343C8.08452 4.99245 7.79837 4.87393 7.5 4.87393ZM0.125 12.8739H7.761C7.94686 13.4543 8.31229 13.9607 8.80458 14.32C9.29686 14.6793 9.89056 14.8729 10.5 14.8729C11.1094 14.8729 11.7031 14.6793 12.1954 14.32C12.6877 13.9607 13.0531 13.4543 13.239 12.8739H17.875V11.1239H13.239C13.0531 10.5435 12.6877 10.0371 12.1954 9.67787C11.7031 9.3186 11.1094 9.125 10.5 9.125C9.89056 9.125 9.29686 9.3186 8.80458 9.67787C8.31229 10.0371 7.94686 10.5435 7.761 11.1239H0.125V12.8739ZM10.5 10.8739C10.2016 10.8739 9.91548 10.9925 9.7045 11.2034C9.49353 11.4144 9.375 11.7006 9.375 11.9989C9.375 12.2973 9.49353 12.5834 9.7045 12.7944C9.91548 13.0054 10.2016 13.1239 10.5 13.1239C10.7984 13.1239 11.0845 13.0054 11.2955 12.7944C11.5065 12.5834 11.625 12.2973 11.625 11.9989C11.625 11.7006 11.5065 11.4144 11.2955 11.2034C11.0845 10.9925 10.7984 10.8739 10.5 10.8739Z" fill="#09090B"/>
</svg>
