<svg width="21" height="28" viewBox="0 0 21 28" fill="none" xmlns="http://www.w3.org/2000/svg">
<path d="M12.0076 0.000419098C15.513 0.758168 18.0013 4.45318 17.5921 8.10619C17.3223 10.1336 16.6496 12.079 16.183 14.0644C17.376 13.2051 18.8858 12.7829 20.3054 13.1571C19.9054 14.6617 19.5541 16.1788 19.0938 17.6656C18.655 19.1198 18.4426 20.6685 17.6799 22.0033C16.6471 23.9359 14.9518 25.4536 12.9989 26.3395C13.3884 24.7585 13.8186 23.1881 14.2137 21.6108C13.2273 21.418 12.2147 21.4842 11.2527 21.8047C11.5215 20.3555 11.3912 18.8097 10.6628 17.5335C9.94727 16.1913 8.68319 15.2276 7.25093 14.8188C6.97366 15.4439 6.7308 16.1114 6.26657 16.6233C5.32668 17.6911 3.89447 18.2472 3.19503 19.547C2.56641 20.7824 2.35711 22.1777 1.98054 23.5007C0.144761 21.1159 -0.493596 17.7881 0.399605 14.8366C0.936791 12.6216 2.24163 10.6499 3.92267 9.16205C5.33516 7.84141 7.14293 7.08095 8.55097 5.75246C10.2364 4.24784 11.4618 2.21544 12.0076 0.000419098Z" fill="#FAFAFA"/>
<path d="M7.30607 1.41221C7.73729 1.07714 8.2864 1.0875 8.79288 1.12033C8.45976 2.15977 8.48324 3.5171 7.48763 4.17511C7.05493 4.50756 6.50122 4.49824 5.99311 4.47168C6.32623 3.43224 6.30547 2.06445 7.30607 1.41221Z" fill="#FAFAFA"/>
<path d="M7.25093 14.8188C8.68319 15.2276 9.94727 16.1913 10.6628 17.5335C11.3912 18.8097 11.5215 20.3555 11.2527 21.8047C12.2147 21.4842 13.2273 21.418 14.2137 21.6108C13.8186 23.1881 13.3884 24.7585 12.9989 26.3395C11.9876 26.75 10.926 27.0296 9.84035 27.0769C10.0533 26.2833 10.2596 25.4902 10.4598 24.6955C9.46047 24.7853 8.46079 24.8682 7.4582 24.9124C7.70289 23.9551 7.95771 23.0004 8.19226 22.0404C7.32642 21.9748 6.38702 22.0756 5.708 22.7061C4.80169 23.4118 4.64677 24.6314 4.36652 25.6756C3.46733 25.081 2.66581 24.3437 1.98054 23.5007C2.35711 22.1777 2.56641 20.7824 3.19503 19.547C3.89447 18.2472 5.32668 17.6911 6.26657 16.6233C6.7308 16.1114 6.97366 15.4439 7.25093 14.8188Z" fill="#D4D4D8"/>
<path d="M5.708 22.7061C6.38702 22.0756 7.32642 21.9748 8.19226 22.0404C7.95771 23.0004 7.70289 23.9551 7.4582 24.9124C8.46079 24.8682 9.46047 24.7853 10.4598 24.6955C10.2596 25.4902 10.0533 26.2833 9.84035 27.0769L9.82957 27.1137C7.91994 27.1509 5.98951 26.6987 4.36652 25.6756C4.64677 24.6314 4.80169 23.4118 5.708 22.7061Z" fill="#A1A1AA"/>
</svg>
